<mxfile host="app.diagrams.net" modified="2023-09-12T04:53:52.660Z" agent="Mozilla/5.0 (Windows NT 10.0; Win64; x64) AppleWebKit/537.36 (KHTML, like Gecko) Chrome/116.0.0.0 Safari/537.36" etag="T29KUPjEVzIAPaVjdVTr" version="21.7.2" type="github">
  <diagram name="Page-1" id="EPswhOgFckfMPDBfark4">
    <mxGraphModel dx="1509" dy="838" grid="1" gridSize="10" guides="1" tooltips="1" connect="1" arrows="1" fold="1" page="1" pageScale="1" pageWidth="827" pageHeight="1169" math="0" shadow="0">
      <root>
        <mxCell id="0" />
        <mxCell id="1" parent="0" />
        <mxCell id="Fq-fFX_DWKKYzb9O_9hO-16" value="" style="rounded=0;whiteSpace=wrap;html=1;" vertex="1" parent="1">
          <mxGeometry y="140" width="800" height="650" as="geometry" />
        </mxCell>
        <mxCell id="Fq-fFX_DWKKYzb9O_9hO-13" style="edgeStyle=orthogonalEdgeStyle;rounded=0;orthogonalLoop=1;jettySize=auto;html=1;exitX=0;exitY=0;exitDx=75;exitDy=0;exitPerimeter=0;entryX=0.435;entryY=1.008;entryDx=0;entryDy=0;entryPerimeter=0;endArrow=none;endFill=0;" edge="1" parent="1" source="Fq-fFX_DWKKYzb9O_9hO-1" target="Fq-fFX_DWKKYzb9O_9hO-3">
          <mxGeometry relative="1" as="geometry" />
        </mxCell>
        <mxCell id="Fq-fFX_DWKKYzb9O_9hO-1" value="Utilisateur" style="verticalAlign=top;align=left;shape=cube;size=10;direction=south;fontStyle=0;html=1;boundedLbl=1;spacingLeft=5;whiteSpace=wrap;" vertex="1" parent="1">
          <mxGeometry x="20" y="180" width="180" height="160" as="geometry" />
        </mxCell>
        <mxCell id="Fq-fFX_DWKKYzb9O_9hO-14" style="edgeStyle=orthogonalEdgeStyle;rounded=0;orthogonalLoop=1;jettySize=auto;html=1;exitX=0;exitY=0;exitDx=160;exitDy=105;exitPerimeter=0;entryX=0.016;entryY=0.579;entryDx=0;entryDy=0;entryPerimeter=0;endArrow=none;endFill=0;" edge="1" parent="1" source="Fq-fFX_DWKKYzb9O_9hO-3" target="Fq-fFX_DWKKYzb9O_9hO-6">
          <mxGeometry relative="1" as="geometry" />
        </mxCell>
        <mxCell id="Fq-fFX_DWKKYzb9O_9hO-15" style="rounded=0;orthogonalLoop=1;jettySize=auto;html=1;exitX=1;exitY=1;exitDx=0;exitDy=0;exitPerimeter=0;entryX=0;entryY=0;entryDx=0;entryDy=0;entryPerimeter=0;endArrow=none;endFill=0;" edge="1" parent="1" source="Fq-fFX_DWKKYzb9O_9hO-3" target="Fq-fFX_DWKKYzb9O_9hO-11">
          <mxGeometry relative="1" as="geometry" />
        </mxCell>
        <mxCell id="Fq-fFX_DWKKYzb9O_9hO-3" value="serveur d&#39;application" style="verticalAlign=top;align=left;shape=cube;size=10;direction=south;fontStyle=0;html=1;boundedLbl=1;spacingLeft=5;whiteSpace=wrap;" vertex="1" parent="1">
          <mxGeometry x="480" y="185" width="200" height="160" as="geometry" />
        </mxCell>
        <mxCell id="Fq-fFX_DWKKYzb9O_9hO-4" value="Navigateur" style="shape=module;align=left;spacingLeft=20;align=center;verticalAlign=top;whiteSpace=wrap;html=1;" vertex="1" parent="1">
          <mxGeometry x="60" y="240" width="100" height="50" as="geometry" />
        </mxCell>
        <mxCell id="Fq-fFX_DWKKYzb9O_9hO-5" value="Applications web" style="shape=module;align=left;spacingLeft=20;align=center;verticalAlign=top;whiteSpace=wrap;html=1;" vertex="1" parent="1">
          <mxGeometry x="530" y="250" width="100" height="50" as="geometry" />
        </mxCell>
        <mxCell id="Fq-fFX_DWKKYzb9O_9hO-6" value="serveur de base de donnee" style="verticalAlign=top;align=left;shape=cube;size=10;direction=south;fontStyle=0;html=1;boundedLbl=1;spacingLeft=5;whiteSpace=wrap;" vertex="1" parent="1">
          <mxGeometry x="490" y="550" width="200" height="160" as="geometry" />
        </mxCell>
        <mxCell id="Fq-fFX_DWKKYzb9O_9hO-7" value="Base de donnee" style="shape=module;align=left;spacingLeft=20;align=center;verticalAlign=top;whiteSpace=wrap;html=1;" vertex="1" parent="1">
          <mxGeometry x="560" y="600" width="100" height="50" as="geometry" />
        </mxCell>
        <mxCell id="Fq-fFX_DWKKYzb9O_9hO-11" value="serveur d&#39;api" style="verticalAlign=top;align=left;shape=cube;size=10;direction=south;fontStyle=0;html=1;boundedLbl=1;spacingLeft=5;whiteSpace=wrap;" vertex="1" parent="1">
          <mxGeometry x="60" y="550" width="180" height="160" as="geometry" />
        </mxCell>
        <mxCell id="Fq-fFX_DWKKYzb9O_9hO-12" value="Api de payement" style="shape=module;align=left;spacingLeft=20;align=center;verticalAlign=top;whiteSpace=wrap;html=1;" vertex="1" parent="1">
          <mxGeometry x="100" y="610" width="100" height="50" as="geometry" />
        </mxCell>
        <mxCell id="Fq-fFX_DWKKYzb9O_9hO-17" value="requette HTTPS" style="text;html=1;strokeColor=none;fillColor=none;align=center;verticalAlign=middle;whiteSpace=wrap;rounded=0;" vertex="1" parent="1">
          <mxGeometry x="270" y="230" width="120" height="30" as="geometry" />
        </mxCell>
        <mxCell id="Fq-fFX_DWKKYzb9O_9hO-18" value="requette HTTPS" style="text;html=1;strokeColor=none;fillColor=none;align=center;verticalAlign=middle;whiteSpace=wrap;rounded=0;rotation=-40;" vertex="1" parent="1">
          <mxGeometry x="280" y="440" width="120" height="30" as="geometry" />
        </mxCell>
        <mxCell id="Fq-fFX_DWKKYzb9O_9hO-19" value="requette HTTPS" style="text;html=1;strokeColor=none;fillColor=none;align=center;verticalAlign=middle;whiteSpace=wrap;rounded=0;rotation=0;" vertex="1" parent="1">
          <mxGeometry x="513" y="445" width="120" height="30" as="geometry" />
        </mxCell>
      </root>
    </mxGraphModel>
  </diagram>
</mxfile>
